<svg width="1254" height="1254" viewBox="0 0 1254 1254" fill="none" xmlns="http://www.w3.org/2000/svg">
<path d="M625.882 146C630.251 147.456 632.377 149.937 635.463 153.183C641.486 159.479 647.782 165.124 654.581 170.574C657.827 173.218 660.991 175.927 664.144 178.679C673.77 187.068 683.811 194.769 694.142 202.266C694.956 202.858 695.769 203.451 696.607 204.061C729.163 227.686 764.204 248.728 801.846 263.096C805.907 264.67 809.893 266.393 813.896 268.109C819.069 270.148 824.263 272.129 829.464 274.094C830.471 274.475 831.477 274.857 832.514 275.249C835.876 276.496 839.255 277.69 842.637 278.883C843.418 279.17 844.2 279.456 845.005 279.752C877.008 291.444 910.464 297.748 944.116 302.445C950.609 303.358 957.098 304.292 963.589 305.22C964.359 314.141 965.119 323.063 965.869 331.985C966.217 336.133 966.568 340.28 966.928 344.427C969.972 379.637 971.021 414.771 971 450.105C970.998 452.734 970.999 455.364 971 457.994C970.996 518.294 970.996 518.294 967.181 541.057C967.061 543.675 966.964 546.294 966.882 548.914C963.137 622.856 935.832 703.024 901.453 768.35C899.831 771.461 898.253 774.594 896.671 777.727C879.924 810.7 860.179 841.984 837.847 871.469C837.335 872.147 836.823 872.825 836.295 873.524C830.273 881.481 824.098 889.3 817.741 896.992C815.964 899.146 814.199 901.31 812.446 903.483C806.974 910.258 801.311 916.788 795.4 923.185C792.998 925.817 790.642 928.474 788.303 931.162C777.95 943.025 767.002 954.368 755.89 965.519C755.127 966.288 754.364 967.056 753.577 967.848C749.062 972.348 744.401 976.609 739.576 980.775C735.995 983.902 732.554 987.173 729.095 990.435C723.052 996.094 716.855 1001.45 710.388 1006.62C707.344 1009.12 704.447 1011.71 701.552 1014.38C694.877 1020.45 687.811 1025.96 680.669 1031.47C678.707 1032.98 676.752 1034.51 674.799 1036.03C666.431 1042.54 657.914 1048.82 649.284 1054.98C645.25 1057.86 641.242 1060.74 637.357 1063.82C636.213 1064.71 635.07 1065.61 633.891 1066.53C632.932 1067.3 631.974 1068.08 630.986 1068.88C628.278 1070.19 628.278 1070.19 625.574 1069.68C620.815 1066.96 616.445 1063.8 612.036 1060.54C611.074 1059.84 610.113 1059.14 609.122 1058.41C606.321 1056.36 603.527 1054.3 600.734 1052.24C600.036 1051.73 599.338 1051.21 598.619 1050.68C588.309 1043.12 578.339 1035.14 568.401 1027.1C567.238 1026.16 566.076 1025.22 564.878 1024.25C549.338 1011.61 534.147 998.588 519.418 985.01C517.149 982.92 514.865 980.854 512.561 978.8C503.821 970.967 495.5 962.73 487.192 954.446C486.594 953.85 485.995 953.255 485.378 952.641C479.128 946.419 472.987 940.154 467.246 933.453C464.385 930.135 461.373 926.963 458.377 923.769C452.031 916.943 446.097 909.865 440.264 902.595C439.087 901.167 437.908 899.741 436.727 898.316C411.048 867.242 388.143 833.593 368.412 798.443C367.457 796.747 367.457 796.747 366.483 795.016C337.356 742.952 315.684 687.547 301.349 629.646C301.024 628.349 300.698 627.051 300.363 625.715C296.265 609.255 292.978 592.918 291.025 576.068C290.596 572.397 290.148 568.728 289.694 565.06C289.263 561.57 288.839 558.078 288.417 554.587C288.213 552.903 288.008 551.219 287.803 549.536C287.072 543.523 286.412 537.504 285.781 531.48C285.673 530.48 285.565 529.481 285.453 528.451C283.178 506.929 282.956 485.473 283.006 463.859C283.012 460.959 283.014 458.059 283.016 455.159C283.07 405.075 285.189 355.035 290.572 305.22C291.225 305.136 291.879 305.053 292.553 304.966C305.657 303.273 318.717 301.415 331.737 299.16C332.866 298.965 333.996 298.771 335.159 298.571C340.641 297.604 346.034 296.509 351.424 295.106C354.642 294.294 357.875 293.573 361.114 292.851C374.366 289.884 387.447 286.826 400.347 282.573C403.953 281.402 407.55 280.411 411.224 279.481C416.943 277.953 422.243 275.838 427.671 273.486C430.79 272.163 433.904 270.904 437.064 269.689C453.738 263.257 469.776 255.718 485.77 247.757C486.865 247.216 487.96 246.674 489.088 246.116C525.032 228.223 558.004 205.231 588.759 179.52C589.705 178.729 589.705 178.729 590.67 177.922C602.807 167.744 614.677 157.202 625.882 146Z" fill="#0E8857"/>
<path d="M586.578 464C597.607 464 608.637 464 620 464C621.12 487.289 621.512 510.544 621.76 533.855C621.851 542.477 621.95 551.1 622.052 559.722C622.063 560.706 622.075 561.69 622.086 562.704C622.279 579.085 622.578 595.463 622.904 611.842C623.363 634.9 623.72 657.954 623.917 681.015C623.928 682.353 623.94 683.69 623.952 685.068C624.043 695.901 624.126 706.734 624.209 717.568C624.449 748.818 624.761 780.061 625.411 811.306C625.958 837.736 626.307 864.168 626.64 890.602C626.653 891.657 626.666 892.712 626.68 893.799C626.844 906.823 627.005 919.848 627.162 932.872C627.544 905.017 627.916 877.161 628.281 849.306C628.295 848.256 628.309 847.206 628.323 846.125C629.113 785.817 629.778 725.51 630.187 665.198C630.221 660.215 630.255 655.231 630.29 650.247C630.296 649.431 630.301 648.615 630.307 647.774C630.324 645.32 630.341 642.867 630.358 640.413C630.37 638.799 630.381 637.184 630.392 635.569C630.425 630.83 630.458 626.091 630.491 621.352C630.502 619.828 630.513 618.303 630.523 616.732C630.709 590.226 630.905 563.72 631.201 537.215C631.244 533.372 631.282 529.529 631.315 525.686C631.493 505.406 632.281 485.391 634.324 465.199C644.959 465.199 655.595 465.199 666.553 465.199C666.826 523.269 667.036 581.339 667.162 639.41C667.177 646.282 667.193 653.154 667.208 660.026C667.211 661.394 667.215 662.762 667.218 664.172C667.27 686.256 667.364 708.34 667.474 730.425C667.586 753.124 667.652 775.822 667.676 798.521C667.692 812.503 667.743 826.483 667.841 840.464C667.904 850.08 667.923 859.697 667.907 869.314C667.9 874.844 667.911 880.372 667.976 885.902C668.263 911.691 666.115 932.863 656.107 956.804C653.733 962.614 651.751 968.551 649.744 974.496C648.996 976.652 648.246 978.806 647.494 980.96C647.131 982.003 646.768 983.045 646.394 984.119C645.648 986.259 644.902 988.399 644.156 990.54C643.033 993.76 641.912 996.982 640.791 1000.2C640.437 1001.22 640.082 1002.24 639.717 1003.28C638.094 1007.96 636.496 1012.64 634.975 1017.35C634.709 1018.17 634.443 1018.99 634.169 1019.84C633.471 1022.01 632.783 1024.18 632.097 1026.35C630.786 1029.89 629.204 1032.84 627.162 1036C624.434 1031.89 622.955 1027.68 621.338 1023.06C621.015 1022.15 620.693 1021.24 620.36 1020.3C618.437 1014.87 616.538 1009.43 614.683 1003.97C610.759 992.517 606.687 981.344 601.517 970.397C580.96 925.272 583.896 877.932 584.477 829.396C584.625 816.697 584.653 803.998 584.676 791.298C584.72 768.664 584.854 746.032 585.047 723.398C585.234 701.457 585.378 679.517 585.463 657.576C585.469 656.215 585.474 654.855 585.479 653.453C585.506 646.627 585.532 639.8 585.557 632.973C585.766 576.648 586.124 520.324 586.578 464Z" fill="#FBFCFC"/>
<path d="M649.436 270.042C658.761 277.332 665.639 286.987 667.154 298.95C667.498 311.659 657.06 331.081 657.06 331.081C657.06 331.081 654.642 333.493 650.946 334.998C648.5 337.5 647.483 338.045 646.749 341.608C646.477 346.098 646.431 350.562 646.464 355.057C646.451 356.72 646.434 358.383 646.414 360.046C646.371 364.414 646.37 368.781 646.379 373.15C646.38 377.611 646.341 382.071 646.304 386.532C646.24 395.278 646.22 404.023 646.229 412.77C647.337 412.759 648.445 412.748 649.587 412.737C660.054 412.641 670.521 412.568 680.989 412.521C686.37 412.496 691.75 412.462 697.131 412.407C702.328 412.355 707.526 412.326 712.724 412.314C714.702 412.305 716.68 412.288 718.657 412.262C730.372 412.114 738.878 412.296 748.634 419.545C756.369 427.294 758 433.016 758 444C671.54 444 585.08 444 496 444C496 435.11 497.051 430.271 501.483 422.829C509.255 415.262 517.626 411.413 528.389 411.432C529.234 411.432 530.078 411.432 530.949 411.432C533.738 411.432 536.528 411.442 539.318 411.451C541.253 411.453 543.188 411.455 545.122 411.456C550.214 411.461 555.306 411.473 560.397 411.486C565.593 411.498 570.789 411.504 575.985 411.51C586.18 411.523 596.374 411.543 606.569 411.568C606.635 402.16 606.648 392.753 606.597 383.344C606.575 378.974 606.57 374.606 606.606 370.236C606.64 366.014 606.627 361.795 606.582 357.573C606.569 355.189 606.604 352.805 606.64 350.421C606.673 342.468 606.673 342.468 603.268 335.56C600.779 333.332 600.779 333.332 598.151 331.62C592.661 327.658 589.395 320.589 587.339 314.274C585.953 301.358 586.55 290.247 594.55 279.44C608.459 264.664 631.353 258.418 649.436 270.042Z" fill="#F8FBFA"/>
<path d="M496 558C506.89 558 517.78 558 529 558C529 610.14 529 662.28 529 716C518.11 716 507.22 716 496 716C496 663.86 496 611.72 496 558Z" fill="#70C88E"/>
<path d="M440 602C451.22 602 462.44 602 474 602C474 639.62 474 677.24 474 716C462.78 716 451.56 716 440 716C440 678.38 440 640.76 440 602Z" fill="#70C88E"/>
<path d="M624.728 471C625.512 471 626.297 471 627.105 471C627.109 471.961 627.113 472.921 627.117 473.911C627.214 497.308 627.323 520.705 627.447 544.102C627.506 555.417 627.561 566.732 627.606 578.046C627.646 587.911 627.693 597.775 627.75 607.64C627.78 612.861 627.806 618.081 627.822 623.302C627.837 628.222 627.864 633.142 627.898 638.061C627.909 639.861 627.916 641.661 627.918 643.462C627.931 651.696 628.065 659.487 630.136 667.494C631.26 673.006 630.98 678.657 630.942 684.26C630.941 685.654 630.941 687.048 630.941 688.484C630.937 692.331 630.922 696.177 630.901 700.023C630.884 703.328 630.877 706.633 630.869 709.938C630.762 751.314 630.224 792.687 629.679 834.059C629.567 842.608 629.462 851.156 629.36 859.705C629.259 868.089 629.153 876.474 629.045 884.858C628.981 889.805 628.918 894.751 628.859 899.698C628.805 904.286 628.745 908.874 628.681 913.462C628.658 915.136 628.638 916.81 628.619 918.484C628.593 920.77 628.56 923.056 628.527 925.342C628.51 926.617 628.494 927.893 628.477 929.206C628.289 932.882 627.774 936.384 627.105 940C626.713 940 626.321 940 625.916 940C625.898 938.337 625.898 938.337 625.879 936.64C625.76 925.857 625.638 915.073 625.513 904.29C625.449 898.754 625.386 893.219 625.325 887.683C625.054 863.072 624.707 838.465 624.208 813.857C623.75 791.197 623.399 768.539 623.205 745.875C623.194 744.538 623.182 743.201 623.171 741.824C623.091 732.34 623.018 722.856 622.945 713.372C622.863 702.54 622.777 691.709 622.685 680.878C622.669 678.881 622.669 678.881 622.651 676.843C622.474 656.288 622.14 635.739 621.729 615.187C621.29 593.25 620.971 571.326 621.008 549.385C621.014 544.779 621.008 540.173 621 535.566C620.996 521.689 621.11 507.834 621.692 493.968C621.738 492.869 621.784 491.77 621.831 490.638C622.669 473.078 622.669 473.078 624.728 471Z" fill="#1B8F60"/>
<path d="M385 649C396.22 649 407.44 649 419 649C419 671.11 419 693.22 419 716C407.78 716 396.56 716 385 716C385 693.89 385 671.78 385 649Z" fill="#70C88F"/>
<path d="M796.877 540.806C803.814 543.3 807.824 547.591 811.336 554.048C813.251 559.788 813.812 565.489 811.406 571.174C807.773 577.249 803.758 581.851 796.877 584.143C780.881 585.548 780.881 585.548 775.037 581.66C768.823 576.002 766.47 570.842 766 562.55C766.253 555.083 768.635 550.72 773.983 545.621C774.89 544.754 775.797 543.886 776.731 542.993C782.833 538.92 789.832 539.891 796.877 540.806Z" fill="#72C790"/>
<path d="M842.803 638.421C850.2 641.367 855.204 646.128 858.92 652.936C861.007 659.981 860.012 665.168 856.426 671.429C853.448 675.881 850.447 678.772 845.463 681.014C836.977 682.779 831.004 682.346 823.34 678.302C816.777 673.125 814.063 667.68 813 659.608C813.3 652.515 817.585 647.34 822.807 642.673C829.496 638.373 834.78 637.283 842.803 638.421Z" fill="#72C790"/>
<path d="M750.545 639.423C755.825 641.619 759.172 645.369 762.272 650.13C764.661 657.359 764.739 665.423 761.456 672.293C756.795 677.376 752.014 681.817 745.075 682.963C737.46 683.229 732.597 682.123 726.506 677.399C721.228 672.417 719.283 668.155 719 660.837C719.298 654.63 720.549 650.302 725.003 645.787C732.942 638.637 740.076 636.145 750.545 639.423Z" fill="#70C68F"/>
<path d="M759.961 694.588C766.488 698.457 773.302 703.729 776 710.838C776 713.532 776 716.225 776 719C753.23 719 730.46 719 707 719C707 710.724 708.883 707.635 714.263 701.511C726.19 690.964 744.93 687.786 759.961 694.588Z" fill="#75C992"/>
<path d="M852.717 693.325C860.346 697.217 867.218 702.622 870 710.796C870 713.503 870 716.211 870 719C847.89 719 825.78 719 803 719C803 709.405 805.036 705.973 811.375 699.076C822.671 690.211 839.083 689.216 852.717 693.325Z" fill="#75CA92"/>
<path d="M807.552 597.163C814.049 600.879 819.614 605.892 823 612.657C823 615.41 823 618.163 823 621C800.56 621 778.12 621 755 621C755 611.739 755.98 609.345 762.158 603.122C775.124 592.663 792.182 589.675 807.552 597.163Z" fill="#73C991"/>
<path d="M623.069 721C623.514 721 623.959 721 624.417 721C625.308 723.764 626.198 726.529 627.115 729.377C627.56 729.377 628.005 729.377 628.464 729.377C628.457 730.083 628.45 730.79 628.443 731.517C628.414 734.718 628.397 737.919 628.38 741.12C628.368 742.231 628.357 743.343 628.345 744.488C628.339 746.09 628.339 746.09 628.332 747.725C628.322 749.201 628.322 749.201 628.311 750.707C628.346 753.529 628.346 753.529 629.813 756.902C629.937 758.724 629.985 760.551 629.987 762.377C629.994 764.076 629.994 764.076 630 765.81C629.997 767.062 629.995 768.313 629.992 769.603C629.994 770.94 629.996 772.276 629.997 773.654C630 778.167 629.992 782.68 629.981 787.194C629.98 788.75 629.978 790.306 629.976 791.909C629.944 821.936 629.634 851.962 629.265 881.988C629.223 885.475 629.182 888.963 629.143 892.45C629.079 897.986 629.008 903.522 628.932 909.057C628.905 911.113 628.879 913.168 628.856 915.223C628.824 918.054 628.783 920.885 628.741 923.715C628.733 924.537 628.725 925.359 628.717 926.206C628.637 930.914 628.12 935.378 627.115 940C626.67 940 626.225 940 625.766 940C625.745 938.341 625.745 938.341 625.724 936.648C625.56 923.657 625.392 910.666 625.222 897.675C625.191 895.379 625.161 893.082 625.131 890.786C624.764 862.834 624.346 834.887 623.659 806.94C622.956 778.292 622.925 749.653 623.069 721Z" fill="#349A6D"/>
<path d="M627.153 577C628.423 577.59 628.423 577.59 629.718 578.192C630.141 608.489 630.564 638.785 631 670C626.725 664.037 626.994 657.917 627.008 650.905C627.008 650.102 627.007 649.298 627.007 648.47C627.008 645.838 627.018 643.206 627.028 640.574C627.031 638.74 627.032 636.906 627.034 635.071C627.039 630.261 627.051 625.451 627.065 620.641C627.078 615.726 627.084 610.81 627.091 605.895C627.104 596.263 627.126 586.632 627.153 577Z" fill="#087E53"/>
<path d="M767 601C765.164 605.179 762.647 608.397 759.8 611.929C759.404 612.73 759.008 613.531 758.6 614.357C757.808 614.357 757.016 614.357 756.2 614.357C755.804 615.559 755.408 616.761 755 618C755.17 611.129 758.242 607.752 762.57 602.869C764.6 601 764.6 601 767 601Z" fill="#69C38C"/>
</svg>
