<svg width="1000" height="1000" viewBox="0 0 1000 1000" fill="none" xmlns="http://www.w3.org/2000/svg">
<path d="M500.167 48C507.044 52.3374 512.991 57.2226 519.045 62.6278C530.37 72.5629 542.213 81.5965 554.418 90.4207C555.397 91.1349 556.375 91.8491 557.383 92.5849C574.4 104.981 592.053 116.209 610.136 126.99C611.161 127.603 612.187 128.215 613.244 128.847C684.574 171.076 765.291 193.71 846.202 208.906C847.306 217.742 847.886 226.343 847.881 235.241C847.888 237.111 847.888 237.111 847.896 239.019C847.91 243.118 847.913 247.216 847.914 251.315C847.919 254.224 847.924 257.133 847.929 260.041C847.938 266.152 847.94 272.263 847.94 278.374C847.939 284.532 847.949 290.691 847.97 296.849C848.126 345.155 847.947 393.342 840.703 441.214C840.313 443.881 839.924 446.548 839.534 449.214C828.848 521.277 808.605 591.626 774.513 656.335C772.603 659.991 770.742 663.671 768.88 667.352C759.44 685.874 749.162 703.537 737.699 720.88C736.645 722.498 735.59 724.116 734.503 725.783C722.285 744.337 709.112 762.092 695.178 779.392C694.078 780.759 692.978 782.126 691.845 783.534C672.69 807.094 652.489 829.399 631.03 850.885C629.729 852.19 628.427 853.495 627.087 854.84C619.716 862.175 612.196 869.203 604.271 875.935C602.632 877.359 600.994 878.783 599.357 880.209C587.593 890.375 575.593 900.165 563.216 909.579C562.4 910.202 561.583 910.825 560.742 911.466C548.361 920.857 535.549 929.576 522.619 938.195C521.076 939.224 519.533 940.253 517.943 941.313C503.952 950.574 503.952 950.574 500.167 952C496.699 950.339 493.935 948.698 490.82 946.515C489.915 945.906 489.01 945.297 488.078 944.67C485.246 942.752 482.441 940.799 479.64 938.835C478.811 938.26 477.982 937.685 477.128 937.093C472.051 933.566 467.03 929.967 462.032 926.33C459.959 924.823 457.882 923.32 455.803 921.822C442.287 912.075 429.031 902.202 416.437 891.289C412.496 887.899 408.475 884.652 404.403 881.421C386.877 867.122 370.935 851 354.917 835.069C354.195 834.352 353.472 833.635 352.727 832.896C344.367 824.59 336.256 816.16 328.616 807.184C327.19 805.549 325.762 803.915 324.332 802.282C301.247 775.697 280.28 747.514 261.169 717.955C260.467 716.881 259.765 715.807 259.042 714.7C225.187 662.663 199.596 605.341 181.622 546.036C180.939 543.785 180.248 541.536 179.543 539.292C174.534 523.308 171.18 506.985 167.879 490.583C167.665 489.521 167.45 488.459 167.229 487.365C162.082 461.749 158.131 436.164 155.775 410.139C155.419 406.23 155.043 402.323 154.666 398.417C151.553 365.363 150.955 332.325 151.009 299.142C151.017 293.463 151.009 287.784 151 282.105C150.995 265.256 151.108 248.431 151.854 231.596C151.91 230.303 151.967 229.009 152.026 227.676C152.347 221.317 152.918 215.172 154.133 208.906C155.174 208.717 156.215 208.528 157.287 208.333C228.43 195.206 299.557 175.409 363.854 141.66C367.012 140.013 370.191 138.406 373.371 136.801C412.036 117.12 447.328 91.9926 480.27 63.8971C486.743 58.3852 493.383 53.1245 500.167 48Z" fill="#24915C"/>
<path d="M500.116 48C509.985 54.5625 509.985 54.5625 513.761 57.9644C514.604 58.713 515.447 59.4617 516.315 60.233C517.2 61.0229 518.085 61.8128 518.997 62.6266C530.323 72.5609 542.168 81.5937 554.375 90.4172C555.843 91.4884 555.843 91.4884 557.34 92.5812C574.359 104.976 592.015 116.204 610.101 126.984C611.126 127.596 612.152 128.209 613.209 128.84C684.549 171.066 765.278 193.698 846.201 208.893C847.306 217.728 847.886 226.328 847.881 235.226C847.888 237.095 847.888 237.095 847.896 239.003C847.91 243.101 847.913 247.2 847.914 251.299C847.919 254.207 847.924 257.115 847.929 260.024C847.938 266.134 847.94 272.245 847.94 278.355C847.939 284.513 847.949 290.671 847.97 296.828C848.126 345.13 847.947 393.314 840.702 441.182C840.312 443.848 839.922 446.515 839.533 449.181C828.845 521.237 808.6 591.581 774.502 656.285C772.592 659.941 770.731 663.62 768.868 667.3C759.427 685.821 749.147 703.483 737.683 720.825C736.628 722.442 735.573 724.06 734.487 725.727C722.266 744.279 709.091 762.033 695.156 779.331C694.055 780.698 692.955 782.065 691.822 783.473C672.664 807.031 652.46 829.334 630.998 850.819C629.696 852.124 628.395 853.429 627.054 854.773C619.682 862.108 612.161 869.135 604.235 875.867C602.595 877.29 600.957 878.715 599.32 880.141C587.554 890.306 575.552 900.094 563.174 909.508C562.357 910.131 561.541 910.753 560.7 911.395C548.274 920.817 535.423 929.607 522.479 938.304C520.146 939.884 520.146 939.884 517.766 941.496C515.573 942.957 515.573 942.957 513.337 944.446C512.026 945.324 510.714 946.202 509.363 947.107C505.982 949 505.982 949 501.582 949C497.471 919.369 505.653 895.898 516.228 868.611C518.18 863.569 520.113 858.519 522.046 853.469C523.43 849.922 524.882 846.412 526.347 842.898C534.874 821.365 535.322 800.697 535.16 777.79C535.133 772.373 535.167 766.957 535.192 761.54C535.229 752.193 535.228 742.846 535.201 733.499C535.163 719.985 535.182 706.472 535.214 692.958C535.264 671.024 535.269 649.09 535.246 627.156C535.222 605.87 535.221 584.585 535.248 563.299C535.25 561.983 535.252 560.667 535.253 559.312C535.262 552.71 535.271 546.108 535.28 539.507C535.356 484.883 535.355 430.26 535.311 375.636C512.082 375.636 488.853 375.636 464.921 375.636C464.921 375.154 464.921 374.671 464.921 374.174C477.019 374.174 489.117 374.174 501.582 374.174C501.582 369.83 501.582 365.485 501.582 361.01C459.48 361.01 417.378 361.01 374 361.01C374 360.527 374 360.044 374 359.547C457.236 359.547 540.473 359.547 626.232 359.547C624.303 348.573 624.303 348.573 619.449 340.075C618.795 339.176 618.141 338.277 617.467 337.35C607.132 328.057 596.626 327.953 583.338 327.94C581.499 327.916 579.66 327.891 577.766 327.867C572.915 327.808 568.065 327.774 563.214 327.751C558.249 327.723 553.285 327.661 548.32 327.603C538.607 327.495 528.894 327.419 519.18 327.369C518.844 317.168 518.614 306.97 518.455 296.765C518.389 293.298 518.299 289.83 518.184 286.364C518.023 281.367 517.949 276.375 517.891 271.376C517.823 269.837 517.755 268.297 517.685 266.711C517.68 260.182 517.737 255.948 522.051 250.828C525.585 247.771 525.585 247.771 529.107 245.205C534.25 241.006 537.197 235.903 538.244 229.37C539.394 216.355 539.33 204.832 530.912 194.266C521.711 185.69 514.057 183.372 501.582 179.64C501.098 136.199 500.614 92.7575 500.116 48Z" fill="#0B714F"/>
<path d="M465.567 375C488.62 375 511.672 375 535.423 375C535.953 430.365 536.368 485.729 536.612 541.096C536.642 547.673 536.672 554.251 536.702 560.829C536.709 562.138 536.715 563.447 536.721 564.796C536.821 585.829 537.005 606.86 537.22 627.892C537.44 649.569 537.567 671.245 537.614 692.923C537.643 705.06 537.711 717.193 537.885 729.329C538.657 784.667 536.067 832.461 513.632 884.117C511.032 890.24 508.662 896.453 506.286 902.667C505.847 903.811 505.408 904.955 504.955 906.134C503.951 908.755 502.95 911.377 501.95 914C498.592 910.62 497.72 908.098 496.084 903.627C495.511 902.069 494.938 900.511 494.347 898.906C493.735 897.211 493.122 895.516 492.491 893.769C491.855 892.026 491.219 890.283 490.563 888.487C483.966 870.296 477.714 851.988 471.534 833.651C469.965 828.925 469.965 828.925 467.683 824.04C464.654 815.862 464.977 807.76 465.042 799.13C465.038 797.314 465.034 795.497 465.031 793.626C465.025 788.609 465.038 783.592 465.06 778.575C465.079 773.156 465.073 767.737 465.069 762.318C465.067 752.937 465.081 743.556 465.105 734.175C465.141 720.611 465.152 707.048 465.158 693.485C465.167 671.477 465.196 649.47 465.238 627.463C465.278 606.089 465.309 584.715 465.327 563.341C465.328 562.023 465.329 560.704 465.331 559.346C465.336 552.733 465.342 546.12 465.347 539.507C465.393 484.671 465.471 429.836 465.567 375Z" fill="#FBFCFB"/>
<path d="M516.437 182.602C526.777 187.805 533.232 194.559 538.288 204.851C541.183 213.77 541.343 225.968 538.001 234.837C533.303 242.382 527.962 249.036 520.512 253.981C519.814 257.212 519.814 257.212 519.878 261.007C519.849 262.467 519.82 263.927 519.79 265.431C519.781 267.011 519.772 268.592 519.762 270.22C519.722 272.642 519.722 272.642 519.682 275.112C519.603 280.284 519.553 285.456 519.504 290.628C519.456 294.129 519.405 297.629 519.353 301.129C519.228 309.723 519.128 318.317 519.047 326.911C520.067 326.898 521.087 326.885 522.138 326.872C531.794 326.754 541.449 326.666 551.105 326.609C556.068 326.578 561.031 326.537 565.994 326.471C571.711 326.4 577.428 326.367 583.145 326.341C584.912 326.311 586.678 326.281 588.498 326.25C600.12 326.247 608.188 327.513 617.244 335.292C623.838 343.508 626 348.076 626 359C542.84 359 459.68 359 374 359C377.32 342.474 377.32 342.474 381.509 338.033C382.298 337.149 383.088 336.265 383.901 335.355C395.03 326.515 404.504 326.106 418.32 326.341C420.157 326.349 421.994 326.358 423.887 326.366C428.733 326.393 433.578 326.446 438.425 326.51C443.385 326.57 448.345 326.597 453.305 326.626C463.01 326.69 472.714 326.788 482.419 326.911C482.432 316.631 482.377 306.352 482.276 296.073C482.249 292.575 482.238 289.078 482.243 285.58C482.247 280.554 482.195 275.531 482.132 270.504C482.146 268.939 482.159 267.374 482.173 265.762C482.092 261.648 481.948 257.975 480.953 253.981C476.896 250.093 476.896 250.093 472.163 248.147C469.433 244.911 469.433 244.911 467.31 241.583C466.59 240.485 465.87 239.387 465.129 238.256C460.257 229.282 460.831 218.664 461.907 208.765C465.842 196.698 472.757 189.749 483.884 183.969C485.212 183.16 485.212 183.16 486.568 182.334C495.455 178.747 507.488 179.661 516.437 182.602Z" fill="#FBFCFC"/>
<path d="M536.582 375C537.173 375 537.764 375 538.373 375C538.74 415.663 539.073 456.326 539.38 496.989C539.392 498.497 539.403 500.006 539.415 501.56C540.044 584.792 540.347 668.008 539.38 751.239C539.369 752.23 539.357 753.221 539.345 754.243C539.064 778.495 538.744 802.748 538.373 827C536.6 827 534.827 827 533 827C533.29 825.951 533.581 824.902 533.88 823.822C534.779 819.717 535.025 815.981 535.039 811.815C535.049 810.251 535.059 808.688 535.069 807.077C535.071 805.368 535.072 803.659 535.074 801.899C535.088 799.166 535.088 799.166 535.101 796.377C535.124 791.324 535.139 786.271 535.15 781.218C535.165 775.767 535.189 770.316 535.212 764.865C535.251 755.422 535.284 745.98 535.312 736.537C535.353 722.884 535.403 709.232 535.456 695.579C535.541 673.429 535.619 651.279 535.691 629.129C535.762 607.611 535.836 586.094 535.915 564.577C535.922 562.588 535.922 562.588 535.93 560.558C535.954 553.905 535.979 547.251 536.004 540.598C536.208 485.398 536.399 430.199 536.582 375Z" fill="#196E49"/>
<path d="M438 97C438.99 97.5186 439.98 98.0371 441 98.5714C437.649 103.837 436.107 106.139 430.125 107.705C428.083 107.851 428.083 107.851 426 108C429.867 103.84 433.375 100.23 438 97Z" fill="#1F8A4E"/>
<path d="M534 241C534 245.5 534 245.5 532.429 250C530.873 250.99 529.317 251.98 527.714 253C526.159 252.505 524.603 252.01 523 251.5C526.63 248.035 530.26 244.57 534 241Z" fill="#176743"/>
<path d="M829 206C832.96 206.413 836.92 206.825 841 207.25C840.505 208.488 840.01 209.725 839.5 211C836.035 210.587 832.57 210.175 829 209.75C829 208.512 829 207.275 829 206Z" fill="#1E7855"/>
</svg>
